<svg version="1.1" id="Layer_1" xmlns="http://www.w3.org/2000/svg" xmlns:xlink="http://www.w3.org/1999/xlink" x="0px" y="0px"
	 width="100%" viewBox="0 0 460 460" enable-background="new 0 0 460 460" xml:space="preserve">
<path fill="#F65938" opacity="1.000000" stroke="none" 
	d="
M211.000000,461.000000 
	C140.685638,461.000000 70.871277,461.000000 1.028458,461.000000 
	C1.028458,307.727295 1.028458,154.454590 1.028458,1.090944 
	C154.231003,1.090944 307.462067,1.090944 460.846558,1.090944 
	C460.846558,154.333221 460.846558,307.666595 460.846558,461.000000 
	C377.787994,461.000000 294.643982,461.000000 211.000000,461.000000 
M311.567108,365.071655 
	C311.705872,366.501526 311.844635,367.931366 311.987701,369.405579 
	C327.561890,369.405579 342.654938,369.405579 357.855988,369.405579 
	C358.076355,368.519440 358.369904,367.893311 358.367828,367.268158 
	C358.263824,335.952454 358.451569,304.630493 357.832062,273.324615 
	C357.621857,262.700348 352.539124,253.461487 344.730896,246.050461 
	C323.031219,225.454636 287.080627,224.523819 264.351471,243.907013 
	C262.940857,245.109955 261.500000,246.277451 258.971191,248.375961 
	C258.971191,211.933685 258.971191,177.063431 258.971191,142.112274 
	C243.254471,142.112274 228.155502,142.112274 212.805679,142.112274 
	C212.652649,143.661987 212.412903,144.958344 212.412567,146.254761 
	C212.394348,219.223984 212.414337,292.193237 212.338806,365.162384 
	C212.335251,368.600464 213.353531,369.823669 216.888840,369.775208 
	C229.547791,369.601654 242.210602,369.718079 254.871857,369.688385 
	C256.160706,369.685364 257.448944,369.436798 259.264954,369.247101 
	C259.264954,367.029388 259.264893,365.064972 259.264954,363.100586 
	C259.265594,340.610077 259.418854,318.118134 259.206635,295.629639 
	C259.089050,283.166229 265.135620,274.746582 275.609650,269.183014 
	C287.904114,262.652435 302.366241,267.171204 308.242737,279.776337 
	C310.407318,284.419342 311.343384,290.009369 311.417999,295.187927 
	C311.749084,318.173492 311.564117,341.166504 311.567108,365.071655 
M165.172882,224.713989 
	C166.888351,183.211502 168.603821,141.709015 170.319931,100.190948 
	C151.857040,100.190948 134.343948,100.190948 116.487717,100.190948 
	C118.935570,160.009415 121.363007,219.328781 123.797226,278.813843 
	C137.177200,278.813843 149.891327,278.813843 163.066055,278.813843 
	C163.765671,260.879181 164.452362,243.275909 165.172882,224.713989 
M112.786217,314.419586 
	C111.444061,320.681091 109.019920,326.935547 108.978973,333.205566 
	C108.886101,347.426971 119.270447,360.231964 132.867432,364.355286 
	C147.446167,368.776337 162.312637,363.897705 171.569794,351.654510 
	C180.039490,340.452789 180.503098,323.935181 172.712250,312.224884 
	C158.368546,290.665100 127.074989,290.547058 112.786217,314.419586 
z"/>
<path fill="#FEF1BF" opacity="1.000000" stroke="none" 
	d="
M311.566467,364.614227 
	C311.564117,341.166504 311.749084,318.173492 311.417999,295.187927 
	C311.343384,290.009369 310.407318,284.419342 308.242737,279.776337 
	C302.366241,267.171204 287.904114,262.652435 275.609650,269.183014 
	C265.135620,274.746582 259.089050,283.166229 259.206635,295.629639 
	C259.418854,318.118134 259.265594,340.610077 259.264954,363.100586 
	C259.264893,365.064972 259.264954,367.029388 259.264954,369.247101 
	C257.448944,369.436798 256.160706,369.685364 254.871857,369.688385 
	C242.210602,369.718079 229.547791,369.601654 216.888840,369.775208 
	C213.353531,369.823669 212.335251,368.600464 212.338806,365.162384 
	C212.414337,292.193237 212.394348,219.223984 212.412567,146.254761 
	C212.412903,144.958344 212.652649,143.661987 212.805679,142.112274 
	C228.155502,142.112274 243.254471,142.112274 258.971191,142.112274 
	C258.971191,177.063431 258.971191,211.933685 258.971191,248.375961 
	C261.500000,246.277451 262.940857,245.109955 264.351471,243.907013 
	C287.080627,224.523819 323.031219,225.454636 344.730896,246.050461 
	C352.539124,253.461487 357.621857,262.700348 357.832062,273.324615 
	C358.451569,304.630493 358.263824,335.952454 358.367828,367.268158 
	C358.369904,367.893311 358.076355,368.519440 357.855988,369.405579 
	C342.654938,369.405579 327.561890,369.405579 311.987701,369.405579 
	C311.844635,367.931366 311.705872,366.501526 311.566467,364.614227 
z"/>
<path fill="#FEF1BF" opacity="1.000000" stroke="none" 
	d="
M165.155975,225.193298 
	C164.452362,243.275909 163.765671,260.879181 163.066055,278.813843 
	C149.891327,278.813843 137.177200,278.813843 123.797226,278.813843 
	C121.363007,219.328781 118.935570,160.009415 116.487717,100.190948 
	C134.343948,100.190948 151.857040,100.190948 170.319931,100.190948 
	C168.603821,141.709015 166.888351,183.211502 165.155975,225.193298 
z"/>
<path fill="#FEF1BF" opacity="1.000000" stroke="none" 
	d="
M112.958389,314.092834 
	C127.074989,290.547058 158.368546,290.665100 172.712250,312.224884 
	C180.503098,323.935181 180.039490,340.452789 171.569794,351.654510 
	C162.312637,363.897705 147.446167,368.776337 132.867432,364.355286 
	C119.270447,360.231964 108.886101,347.426971 108.978973,333.205566 
	C109.019920,326.935547 111.444061,320.681091 112.958389,314.092834 
z"/>
</svg>